<?xml version="1.0" encoding="UTF-8"?>
<svg enable-background="new 0 0 60 60" version="1.1" viewBox="0 0 60 60" xml:space="preserve" xmlns="http://www.w3.org/2000/svg">
	<path d="m60 4.293c0-2.206-1.794-4-4-4h-52c-2.206 0-4 1.794-4 4 0 1.859 1.28 3.411 3 3.858v48.556l3-3 6 6 6-6 6 6 6-6 6 6 6-6 6 6 6-6 3 3v-48.556c1.72-0.447 3-1.999 3-3.858zm-5 47.586-1-1-6 6-6-6-6 6-6-6-6 6-6-6-6 6-6-6-1 1v-46.586h50v46.586zm2-45.855v-2.731h-54v2.731c-0.597-0.345-1-0.992-1-1.731 0-1.103 0.897-2 2-2h52c1.103 0 2 0.897 2 2 0 0.739-0.403 1.386-1 1.731z"/>
	<path d="m44 40.293h-15c-0.552 0-1 0.447-1 1s0.448 1 1 1h15c0.552 0 1-0.447 1-1s-0.448-1-1-1z"/>
	<path d="m48.29 40.583c-0.18 0.189-0.29 0.439-0.29 0.71 0 0.26 0.11 0.52 0.29 0.71 0.19 0.18 0.45 0.29 0.71 0.29s0.52-0.11 0.71-0.29c0.18-0.19 0.29-0.45 0.29-0.71 0-0.271-0.11-0.521-0.29-0.71-0.38-0.37-1.04-0.37-1.42 0z"/>
	<path d="m49 26.293h-15c-0.552 0-1 0.447-1 1s0.448 1 1 1h15c0.552 0 1-0.447 1-1s-0.448-1-1-1z"/>
	<path d="m49 33.293h-10c-0.552 0-1 0.447-1 1s0.448 1 1 1h10c0.552 0 1-0.447 1-1s-0.448-1-1-1z"/>
	<path d="m28 34.293c0 0.553 0.448 1 1 1h2c0.552 0 1-0.447 1-1s-0.448-1-1-1h-2c-0.552 0-1 0.447-1 1z"/>
	<path d="m45 20.293c0-0.553-0.448-1-1-1h-15c-0.552 0-1 0.447-1 1s0.448 1 1 1h15c0.552 0 1-0.447 1-1z"/>
	<path d="m48.29 19.583c-0.18 0.189-0.29 0.439-0.29 0.71 0 0.26 0.11 0.52 0.29 0.71 0.19 0.18 0.45 0.29 0.71 0.29 0.27 0 0.52-0.11 0.71-0.29 0.18-0.19 0.29-0.45 0.29-0.71s-0.11-0.521-0.29-0.71c-0.37-0.37-1.05-0.37-1.42 0z"/>
	<path d="m30.71 28.003c0.18-0.19 0.29-0.44 0.29-0.71 0-0.271-0.11-0.521-0.29-0.71-0.37-0.37-1.04-0.37-1.42 0-0.18 0.189-0.29 0.439-0.29 0.71 0 0.27 0.11 0.52 0.29 0.71 0.19 0.18 0.45 0.29 0.71 0.29s0.52-0.11 0.71-0.29z"/>
	<path d="m35.71 35.003c0.18-0.19 0.29-0.44 0.29-0.71 0-0.271-0.11-0.53-0.29-0.71-0.37-0.37-1.04-0.37-1.42 0-0.18 0.189-0.29 0.45-0.29 0.71s0.11 0.52 0.29 0.71c0.19 0.18 0.45 0.29 0.71 0.29s0.52-0.11 0.71-0.29z"/>
	<path d="m17 21.394v-1.101c0-0.553-0.448-1-1-1s-1 0.447-1 1v1.104c-1.091 0.222-2.085 0.801-2.818 1.668-0.611 0.722-0.894 1.646-0.794 2.603 0.102 0.979 0.606 1.887 1.383 2.491l2.229 1.734v5.438c-1.161-0.414-2-1.514-2-2.816 0-0.553-0.448-1-1-1s-1 0.447-1 1c0 2.414 1.721 4.434 4 4.899v0.878c0 0.553 0.448 1 1 1s1-0.447 1-1v-0.882c1.091-0.222 2.085-0.801 2.819-1.668 0.611-0.724 0.893-1.648 0.793-2.605-0.103-0.978-0.606-1.885-1.383-2.488l-2.229-1.733v-5.438c1.161 0.414 2 1.514 2 2.816 0 0.553 0.448 1 1 1s1-0.447 1-1c0-2.415-1.721-4.435-4-4.9zm1.001 10.834c0.349 0.271 0.576 0.68 0.622 1.118 0.043 0.41-0.075 0.803-0.331 1.105-0.348 0.411-0.798 0.699-1.292 0.875v-3.878l1.001 0.78zm-4.002-5.647c-0.35-0.272-0.576-0.681-0.622-1.12-0.042-0.409 0.075-0.801 0.331-1.104 0.348-0.411 0.798-0.699 1.292-0.875v3.877l-1.001-0.778z"/>
	<circle cx="40" cy="11.293" r="1"/>
	<circle cx="36" cy="11.293" r="1"/>
	<circle cx="44" cy="11.293" r="1"/>
	<circle cx="32" cy="11.293" r="1"/>
	<circle cx="48" cy="11.293" r="1"/>
	<circle cx="20" cy="11.293" r="1"/>
	<circle cx="24" cy="11.293" r="1"/>
	<circle cx="28" cy="11.293" r="1"/>
	<circle cx="52" cy="11.293" r="1"/>
	<circle cx="16" cy="11.293" r="1"/>
	<circle cx="12" cy="11.293" r="1"/>
	<circle cx="8" cy="11.293" r="1"/>
</svg>
